<svg width="45" height="30" viewBox="0 0 45 30" fill="none" xmlns="http://www.w3.org/2000/svg">
<path d="M8.89595 6.94824H20.8839C21.4139 6.94824 21.9221 7.15875 22.2967 7.53344C22.6714 7.90814 22.8819 8.41634 22.8819 8.94624V20.9342C22.8819 21.4641 22.6714 21.9723 22.2967 22.347C21.9221 22.7217 21.4139 22.9322 20.8839 22.9322H8.89595C8.36605 22.9322 7.85785 22.7217 7.48315 22.347C7.10845 21.9723 6.89795 21.4641 6.89795 20.9342V8.94624C6.89795 8.41634 7.10845 7.90814 7.48315 7.53344C7.85785 7.15875 8.36605 6.94824 8.89595 6.94824ZM17.2676 16.201H12.5123L14.8899 10.4507L17.2676 16.201ZM17.799 17.4847L19.2256 20.9342H20.6502L15.6931 8.94624H14.0868L9.12972 20.9342H10.5543L11.9809 17.4847H17.799Z" fill="#333333"/>
<g clip-path="url(#clip0_288_8509)">
<g clip-path="url(#clip1_288_8509)">
<path d="M32.3188 14.4644C32.2453 14.3958 32.1863 14.3132 32.1454 14.2213C32.1045 14.1295 32.0825 14.0304 32.0807 13.9298C32.0789 13.8293 32.0974 13.7295 32.135 13.6362C32.1727 13.543 32.2287 13.4583 32.2998 13.3872C32.3709 13.3162 32.4555 13.2601 32.5487 13.2225C32.6419 13.1848 32.7418 13.1663 32.8423 13.1681C32.9428 13.1699 33.0419 13.1919 33.1337 13.2328C33.2255 13.2737 33.3082 13.3327 33.3767 13.4063L36.3767 16.4059L39.3757 13.4063C39.4442 13.3327 39.5268 13.2737 39.6186 13.2328C39.7104 13.1919 39.8096 13.1699 39.9101 13.1681C40.0106 13.1663 40.1104 13.1848 40.2036 13.2225C40.2968 13.2601 40.3815 13.3162 40.4525 13.3872C40.5236 13.4583 40.5796 13.543 40.6173 13.6362C40.6549 13.7295 40.6734 13.8293 40.6716 13.9298C40.6699 14.0304 40.6479 14.1295 40.607 14.2213C40.5661 14.3132 40.5071 14.3958 40.4335 14.4644L36.8916 18.008C36.8118 18.0878 36.7149 18.1485 36.6083 18.1856C36.5017 18.2227 36.3881 18.2352 36.276 18.2221C36.1639 18.2091 36.0562 18.1708 35.9609 18.1102C35.8657 18.0496 35.7853 17.9683 35.726 17.8723L32.3188 14.4644Z" fill="#333333"/>
</g>
</g>
<defs>
<clipPath id="clip0_288_8509">
<rect width="9.98" height="19.98" fill="white" transform="translate(31.3799 4.9502)"/>
</clipPath>
<clipPath id="clip1_288_8509">
<rect width="9.98" height="19.98" fill="white" transform="translate(31.3799 4.9502)"/>
</clipPath>
</defs>
</svg>
